<svg xmlns="http://www.w3.org/2000/svg" viewBox="0 0 100 100">
  <defs>
    <radialGradient id="hg" cx="38%" cy="30%" r="80%">
      <stop offset="0%" stop-color="#ffcdd2"/>
      <stop offset="30%" stop-color="#ef5350"/>
      <stop offset="70%" stop-color="#c62828"/>
      <stop offset="100%" stop-color="#5c0a0a"/>
    </radialGradient>
    <linearGradient id="hrim" x1="0" y1="0" x2="0" y2="1">
      <stop offset="0%" stop-color="#ef9a9a"/>
      <stop offset="100%" stop-color="#420606"/>
    </linearGradient>
  </defs>
  <path d="M50 3 C50 3 88 38 88 62 A38 36 0 0 1 12 62 C12 38 50 3 50 3 Z"
        fill="url(#hrim)" stroke="#2e0404" stroke-width="3"/>
  <path d="M50 12 C50 12 81 41 81 61 A31 30 0 0 1 19 61 C19 41 50 12 50 12 Z"
        fill="url(#hg)"/>
  <ellipse cx="38" cy="38" rx="10" ry="14" fill="#ffffff" opacity="0.5" transform="rotate(20 38 38)"/>
  <ellipse cx="62" cy="72" rx="9" ry="5" fill="#ff8a80" opacity="0.4"/>
</svg>
