<svg xmlns="http://www.w3.org/2000/svg" viewBox="0 0 100 100">
  <defs>
    <linearGradient id="fl" x1="0" y1="0" x2="1" y2="1">
      <stop offset="0%" stop-color="#f9e7ae"/>
      <stop offset="50%" stop-color="#d4af5a"/>
      <stop offset="100%" stop-color="#8a6a26"/>
    </linearGradient>
  </defs>
  <path d="M4 96 C4 60 10 34 30 20 C46 9 70 6 96 4 C80 14 74 20 70 30 C86 28 92 26 96 24 C84 34 78 40 76 50 C64 46 56 44 46 46 C36 50 30 60 28 72 C24 60 22 52 24 44 C14 56 8 74 4 96 Z"
        fill="url(#fl)" stroke="#5c431a" stroke-width="2" stroke-linejoin="round"/>
</svg>
