<svg xmlns="http://www.w3.org/2000/svg" width="704" height="270" viewBox="0 0 704 270" shape-rendering="crispEdges"><rect x="0" y="150" width="704" height="80" fill="#26264f"/><rect x="8" y="118" width="6" height="96" fill="#101028"/><rect x="0" y="112" width="46" height="12" fill="#101028"/><rect x="2" y="114" width="42" height="8" fill="#ff77b8"/><text x="6" y="122" font-size="8" fill="#fff" text-anchor="start" font-family="'Microsoft YaHei','SimHei',monospace" font-weight="bold">BAR</text><rect x="118" y="118" width="6" height="96" fill="#101028"/><rect x="110" y="112" width="46" height="12" fill="#101028"/><rect x="112" y="114" width="42" height="8" fill="#ff77b8"/><text x="116" y="122" font-size="8" fill="#fff" text-anchor="start" font-family="'Microsoft YaHei','SimHei',monospace" font-weight="bold">BAR</text><rect x="228" y="118" width="6" height="96" fill="#101028"/><rect x="220" y="112" width="46" height="12" fill="#101028"/><rect x="222" y="114" width="42" height="8" fill="#ff77b8"/><text x="226" y="122" font-size="8" fill="#fff" text-anchor="start" font-family="'Microsoft YaHei','SimHei',monospace" font-weight="bold">BAR</text><rect x="338" y="118" width="6" height="96" fill="#101028"/><rect x="330" y="112" width="46" height="12" fill="#101028"/><rect x="332" y="114" width="42" height="8" fill="#ff77b8"/><text x="336" y="122" font-size="8" fill="#fff" text-anchor="start" font-family="'Microsoft YaHei','SimHei',monospace" font-weight="bold">BAR</text><rect x="448" y="118" width="6" height="96" fill="#101028"/><rect x="440" y="112" width="46" height="12" fill="#101028"/><rect x="442" y="114" width="42" height="8" fill="#ff77b8"/><text x="446" y="122" font-size="8" fill="#fff" text-anchor="start" font-family="'Microsoft YaHei','SimHei',monospace" font-weight="bold">BAR</text><rect x="558" y="118" width="6" height="96" fill="#101028"/><rect x="550" y="112" width="46" height="12" fill="#101028"/><rect x="552" y="114" width="42" height="8" fill="#ff77b8"/><text x="556" y="122" font-size="8" fill="#fff" text-anchor="start" font-family="'Microsoft YaHei','SimHei',monospace" font-weight="bold">BAR</text><rect x="668" y="118" width="6" height="96" fill="#101028"/><rect x="660" y="112" width="46" height="12" fill="#101028"/><rect x="662" y="114" width="42" height="8" fill="#ff77b8"/><text x="666" y="122" font-size="8" fill="#fff" text-anchor="start" font-family="'Microsoft YaHei','SimHei',monospace" font-weight="bold">BAR</text><rect x="55" y="128" width="40" height="10" fill="#101028"/><rect x="57" y="130" width="36" height="6" fill="#22aaff"/><rect x="165" y="128" width="40" height="10" fill="#101028"/><rect x="167" y="130" width="36" height="6" fill="#22aaff"/><rect x="275" y="128" width="40" height="10" fill="#101028"/><rect x="277" y="130" width="36" height="6" fill="#22aaff"/><rect x="385" y="128" width="40" height="10" fill="#101028"/><rect x="387" y="130" width="36" height="6" fill="#22aaff"/><rect x="495" y="128" width="40" height="10" fill="#101028"/><rect x="497" y="130" width="36" height="6" fill="#22aaff"/><rect x="605" y="128" width="40" height="10" fill="#101028"/><rect x="607" y="130" width="36" height="6" fill="#22aaff"/><rect x="0" y="196" width="704" height="34" fill="#1c1c40"/><circle cx="5" cy="216" r="3.5" fill="#e8c39a"/><rect x="0.5" y="219.5" width="9" height="7.5" fill="#b03a48"/><rect x="8.5" y="210.5" width="2" height="6" fill="#b03a48"/><circle cx="27" cy="214" r="3.5" fill="#e8c39a"/><rect x="22.5" y="217" width="9" height="7.5" fill="#3a58b0"/><circle cx="42" cy="216" r="3.5" fill="#e8c39a"/><rect x="37.5" y="219.5" width="9" height="7.5" fill="#3aa060"/><circle cx="57" cy="214" r="3.5" fill="#e8c39a"/><rect x="52.5" y="217" width="9" height="7.5" fill="#a08030"/><rect x="60.5" y="210.5" width="2" height="6" fill="#a08030"/><circle cx="72" cy="216" r="3.5" fill="#e8c39a"/><rect x="67.5" y="219.5" width="9" height="7.5" fill="#7a4fa0"/><circle cx="87" cy="214" r="3.5" fill="#e8c39a"/><rect x="82.5" y="217" width="9" height="7.5" fill="#b03a48"/><circle cx="102" cy="216" r="3.5" fill="#e8c39a"/><rect x="97.5" y="219.5" width="9" height="7.5" fill="#3a58b0"/><rect x="105.5" y="210.5" width="2" height="6" fill="#3a58b0"/><circle cx="117" cy="214" r="3.5" fill="#e8c39a"/><rect x="112.5" y="217" width="9" height="7.5" fill="#3aa060"/><circle cx="139" cy="216" r="3.5" fill="#e8c39a"/><rect x="134.5" y="219.5" width="9" height="7.5" fill="#a08030"/><circle cx="154" cy="214" r="3.5" fill="#e8c39a"/><rect x="149.5" y="217" width="9" height="7.5" fill="#7a4fa0"/><rect x="157.5" y="210.5" width="2" height="6" fill="#7a4fa0"/><circle cx="169" cy="216" r="3.5" fill="#e8c39a"/><rect x="164.5" y="219.5" width="9" height="7.5" fill="#b03a48"/><circle cx="184" cy="214" r="3.5" fill="#e8c39a"/><rect x="179.5" y="217" width="9" height="7.5" fill="#3a58b0"/><circle cx="199" cy="216" r="3.5" fill="#e8c39a"/><rect x="194.5" y="219.5" width="9" height="7.5" fill="#3aa060"/><rect x="202.5" y="210.5" width="2" height="6" fill="#3aa060"/><circle cx="214" cy="214" r="3.5" fill="#e8c39a"/><rect x="209.5" y="217" width="9" height="7.5" fill="#a08030"/><circle cx="229" cy="216" r="3.5" fill="#e8c39a"/><rect x="224.5" y="219.5" width="9" height="7.5" fill="#7a4fa0"/><circle cx="251" cy="214" r="3.5" fill="#e8c39a"/><rect x="246.5" y="217" width="9" height="7.5" fill="#b03a48"/><rect x="254.5" y="210.5" width="2" height="6" fill="#b03a48"/><circle cx="266" cy="216" r="3.5" fill="#e8c39a"/><rect x="261.5" y="219.5" width="9" height="7.5" fill="#3a58b0"/><circle cx="281" cy="214" r="3.5" fill="#e8c39a"/><rect x="276.5" y="217" width="9" height="7.5" fill="#3aa060"/><circle cx="296" cy="216" r="3.5" fill="#e8c39a"/><rect x="291.5" y="219.5" width="9" height="7.5" fill="#a08030"/><rect x="299.5" y="210.5" width="2" height="6" fill="#a08030"/><circle cx="311" cy="214" r="3.5" fill="#e8c39a"/><rect x="306.5" y="217" width="9" height="7.5" fill="#7a4fa0"/><circle cx="326" cy="216" r="3.5" fill="#e8c39a"/><rect x="321.5" y="219.5" width="9" height="7.5" fill="#b03a48"/><circle cx="341" cy="214" r="3.5" fill="#e8c39a"/><rect x="336.5" y="217" width="9" height="7.5" fill="#3a58b0"/><rect x="344.5" y="210.5" width="2" height="6" fill="#3a58b0"/><circle cx="363" cy="216" r="3.5" fill="#e8c39a"/><rect x="358.5" y="219.5" width="9" height="7.5" fill="#3aa060"/><circle cx="378" cy="214" r="3.5" fill="#e8c39a"/><rect x="373.5" y="217" width="9" height="7.5" fill="#a08030"/><circle cx="393" cy="216" r="3.5" fill="#e8c39a"/><rect x="388.5" y="219.5" width="9" height="7.5" fill="#7a4fa0"/><rect x="396.5" y="210.5" width="2" height="6" fill="#7a4fa0"/><circle cx="408" cy="214" r="3.5" fill="#e8c39a"/><rect x="403.5" y="217" width="9" height="7.5" fill="#b03a48"/><circle cx="423" cy="216" r="3.5" fill="#e8c39a"/><rect x="418.5" y="219.5" width="9" height="7.5" fill="#3a58b0"/><circle cx="438" cy="214" r="3.5" fill="#e8c39a"/><rect x="433.5" y="217" width="9" height="7.5" fill="#3aa060"/><rect x="441.5" y="210.5" width="2" height="6" fill="#3aa060"/><circle cx="453" cy="216" r="3.5" fill="#e8c39a"/><rect x="448.5" y="219.5" width="9" height="7.5" fill="#a08030"/><circle cx="475" cy="214" r="3.5" fill="#e8c39a"/><rect x="470.5" y="217" width="9" height="7.5" fill="#7a4fa0"/><circle cx="490" cy="216" r="3.5" fill="#e8c39a"/><rect x="485.5" y="219.5" width="9" height="7.5" fill="#b03a48"/><rect x="493.5" y="210.5" width="2" height="6" fill="#b03a48"/><circle cx="505" cy="214" r="3.5" fill="#e8c39a"/><rect x="500.5" y="217" width="9" height="7.5" fill="#3a58b0"/><circle cx="520" cy="216" r="3.5" fill="#e8c39a"/><rect x="515.5" y="219.5" width="9" height="7.5" fill="#3aa060"/><circle cx="535" cy="214" r="3.5" fill="#e8c39a"/><rect x="530.5" y="217" width="9" height="7.5" fill="#a08030"/><rect x="538.5" y="210.5" width="2" height="6" fill="#a08030"/><circle cx="550" cy="216" r="3.5" fill="#e8c39a"/><rect x="545.5" y="219.5" width="9" height="7.5" fill="#7a4fa0"/><circle cx="565" cy="214" r="3.5" fill="#e8c39a"/><rect x="560.5" y="217" width="9" height="7.5" fill="#b03a48"/><circle cx="587" cy="216" r="3.5" fill="#e8c39a"/><rect x="582.5" y="219.5" width="9" height="7.5" fill="#3a58b0"/><rect x="590.5" y="210.5" width="2" height="6" fill="#3a58b0"/><circle cx="602" cy="214" r="3.5" fill="#e8c39a"/><rect x="597.5" y="217" width="9" height="7.5" fill="#3aa060"/><circle cx="617" cy="216" r="3.5" fill="#e8c39a"/><rect x="612.5" y="219.5" width="9" height="7.5" fill="#a08030"/><circle cx="632" cy="214" r="3.5" fill="#e8c39a"/><rect x="627.5" y="217" width="9" height="7.5" fill="#7a4fa0"/><rect x="635.5" y="210.5" width="2" height="6" fill="#7a4fa0"/><circle cx="647" cy="216" r="3.5" fill="#e8c39a"/><rect x="642.5" y="219.5" width="9" height="7.5" fill="#b03a48"/><circle cx="662" cy="214" r="3.5" fill="#e8c39a"/><rect x="657.5" y="217" width="9" height="7.5" fill="#3a58b0"/><circle cx="677" cy="216" r="3.5" fill="#e8c39a"/><rect x="672.5" y="219.5" width="9" height="7.5" fill="#3aa060"/><rect x="680.5" y="210.5" width="2" height="6" fill="#3aa060"/><circle cx="699" cy="214" r="3.5" fill="#e8c39a"/><rect x="694.5" y="217" width="9" height="7.5" fill="#a08030"/><rect x="0" y="226" width="704" height="6" fill="#15152f"/></svg>