<svg xmlns="http://www.w3.org/2000/svg" width="512" height="270" viewBox="0 0 512 270" shape-rendering="crispEdges"><rect x="0" y="0" width="512" height="270" fill="#0d0d2b"/><rect x="0" y="0" width="512" height="90" fill="#141438"/><rect x="0" y="0" width="1" height="1" fill="#ffffff"/><rect x="67" y="31" width="1" height="1" fill="#8888c8"/><rect x="134" y="62" width="1" height="1" fill="#8888c8"/><rect x="201" y="93" width="1" height="1" fill="#ffffff"/><rect x="268" y="4" width="1" height="1" fill="#8888c8"/><rect x="335" y="35" width="1" height="1" fill="#8888c8"/><rect x="402" y="66" width="1" height="1" fill="#ffffff"/><rect x="469" y="97" width="1" height="1" fill="#8888c8"/><rect x="24" y="8" width="1" height="1" fill="#8888c8"/><rect x="91" y="39" width="1" height="1" fill="#ffffff"/><rect x="158" y="70" width="1" height="1" fill="#8888c8"/><rect x="225" y="101" width="1" height="1" fill="#8888c8"/><rect x="292" y="12" width="1" height="1" fill="#ffffff"/><rect x="359" y="43" width="1" height="1" fill="#8888c8"/><rect x="426" y="74" width="1" height="1" fill="#8888c8"/><rect x="493" y="105" width="1" height="1" fill="#ffffff"/><rect x="48" y="16" width="1" height="1" fill="#8888c8"/><rect x="115" y="47" width="1" height="1" fill="#8888c8"/><rect x="182" y="78" width="1" height="1" fill="#ffffff"/><rect x="249" y="109" width="1" height="1" fill="#8888c8"/><rect x="316" y="20" width="1" height="1" fill="#8888c8"/><rect x="383" y="51" width="1" height="1" fill="#ffffff"/><rect x="450" y="82" width="1" height="1" fill="#8888c8"/><rect x="5" y="113" width="1" height="1" fill="#8888c8"/><rect x="72" y="24" width="1" height="1" fill="#ffffff"/><rect x="139" y="55" width="1" height="1" fill="#8888c8"/><rect x="206" y="86" width="1" height="1" fill="#8888c8"/><rect x="273" y="117" width="1" height="1" fill="#ffffff"/><rect x="340" y="28" width="1" height="1" fill="#8888c8"/><rect x="407" y="59" width="1" height="1" fill="#8888c8"/><rect x="474" y="90" width="1" height="1" fill="#ffffff"/><rect x="29" y="1" width="1" height="1" fill="#8888c8"/><rect x="96" y="32" width="1" height="1" fill="#8888c8"/><rect x="163" y="63" width="1" height="1" fill="#ffffff"/><rect x="230" y="94" width="1" height="1" fill="#8888c8"/><rect x="297" y="5" width="1" height="1" fill="#8888c8"/><rect x="364" y="36" width="1" height="1" fill="#ffffff"/><rect x="431" y="67" width="1" height="1" fill="#8888c8"/><rect x="498" y="98" width="1" height="1" fill="#8888c8"/><rect x="53" y="9" width="1" height="1" fill="#ffffff"/><circle cx="384" cy="42" r="16" fill="#f5edc8"/><circle cx="378" cy="38" r="14" fill="#141438"/></svg>